# xmcd
#
# Track frame offsets: 
#        150
#        57531
#        85000
#        105543
#        119839
#        158399
#        189123
#        220745
#        252106
#
# Disc length: 3837 seconds
#
# Revision: 1
# Processed by: cddbd v1.5.2PL0 Copyright (c) Steve Scherf et al.
# Submitted via: ExactAudioCopy v1.0b3
#
DISCID=6e0efb09
DTITLE=Simple Acoustic Trio - Lullaby for Rosemary
DYEAR=2001
DGENRE=Jazz
TTITLE0=Sventetic
TTITLE1=Ballad for Bernt
TTITLE2=Cherry
TTITLE3=Moja Ballada
TTITLE4=Astigmatic
TTITLE5=Kolysanka
TTITLE6=Kattorna
TTITLE7=Sleep Safe and Warm
TTITLE8=Moja Ballada (Bonus)
EXTD=YEAR: 1995
EXTT0=
EXTT1=
EXTT2=
EXTT3=
EXTT4=
EXTT5=
EXTT6=
EXTT7=
EXTT8=
PLAYORDER=
